HIERARCHY
ROOT Hips
{
	OFFSET 0.000000 100.481300 0.000000
	CHANNELS 6 Xposition Yposition Zposition Xrotation Yrotation Zrotation
	JOINT Spine
	{
		OFFSET -0.279200 12.230698 -2.892100
		CHANNELS 3 Xrotation Yrotation Zrotation
		JOINT Spine1
		{
			OFFSET -0.325700 14.269203 -3.374200
			CHANNELS 3 Xrotation Yrotation Zrotation
			JOINT Spine2
			{
				OFFSET -0.372300 16.307602 -0.352600
				CHANNELS 3 Xrotation Yrotation Zrotation
				JOINT Neck
				{
					OFFSET -0.418800 17.814194 8.416900
					CHANNELS 3 Xrotation Yrotation Zrotation
					JOINT Head
					{
						OFFSET 0.000000 7.031097 3.806800
						CHANNELS 3 Xrotation Yrotation Zrotation
						JOINT HeadTop_End
						{
							OFFSET 0.000000 24.646606 12.978600
							CHANNELS 3 Xrotation Yrotation Zrotation
							End Site
							{
								OFFSET 0.000000 27.854965 0.000000
							}
						}
					}
				}
				JOINT LeftShoulder
				{
					OFFSET 16.952999 14.495407 -7.737500
					CHANNELS 3 Xrotation Yrotation Zrotation
					JOINT LeftArm
					{
						OFFSET 9.308998 -2.777710 0.208600
						CHANNELS 3 Xrotation Yrotation Zrotation
						JOINT LeftForeArm
						{
							OFFSET 29.972298 0.000000 0.000000
							CHANNELS 3 Xrotation Yrotation Zrotation
							JOINT LeftHand
							{
								OFFSET 26.026505 0.000000 0.000000
								CHANNELS 3 Xrotation Yrotation Zrotation
								JOINT LeftHandThumb1
								{
									OFFSET 12.240501 -7.147949 9.207150
									CHANNELS 3 Xrotation Yrotation Zrotation
									JOINT LeftHandThumb2
									{
										OFFSET 4.138618 -2.389435 2.389433
										CHANNELS 3 Xrotation Yrotation Zrotation
										JOINT LeftHandThumb3
										{
											OFFSET 2.726913 -1.574387 1.574386
											CHANNELS 3 Xrotation Yrotation Zrotation
											JOINT LeftHandThumb4
											{
												OFFSET 3.941010 -2.275345 2.275342
												CHANNELS 3 Xrotation Yrotation Zrotation
												End Site
												{
													OFFSET -0.005798 5.087799 0.009903
												}
											}
										}
									}
								}
								JOINT LeftHandIndex1
								{
									OFFSET 24.424698 -1.985611 5.953459
									CHANNELS 3 Xrotation Yrotation Zrotation
									JOINT LeftHandIndex2
									{
										OFFSET 6.426697 0.000000 0.000000
										CHANNELS 3 Xrotation Yrotation Zrotation
										JOINT LeftHandIndex3
										{
											OFFSET 5.337898 0.000000 0.000000
											CHANNELS 3 Xrotation Yrotation Zrotation
											JOINT LeftHandIndex4
											{
												OFFSET 4.409401 0.000000 0.000000
												CHANNELS 3 Xrotation Yrotation Zrotation
												End Site
												{
													OFFSET 0.000000 4.409363 0.014373
												}
											}
										}
									}
								}
								JOINT LeftHandMiddle1
								{
									OFFSET 23.810104 0.000000 0.000000
									CHANNELS 3 Xrotation Yrotation Zrotation
									JOINT LeftHandMiddle2
									{
										OFFSET 7.176498 0.000000 0.000000
										CHANNELS 3 Xrotation Yrotation Zrotation
										JOINT LeftHandMiddle3
										{
											OFFSET 6.774902 0.000000 0.000000
											CHANNELS 3 Xrotation Yrotation Zrotation
											JOINT LeftHandMiddle4
											{
												OFFSET 5.403328 0.000000 0.000000
												CHANNELS 3 Xrotation Yrotation Zrotation
												End Site
												{
													OFFSET -0.027702 5.403244 0.017414
												}
											}
										}
									}
								}
								JOINT LeftHandRing1
								{
									OFFSET 22.908401 -0.839279 -6.020567
									CHANNELS 3 Xrotation Yrotation Zrotation
									JOINT LeftHandRing2
									{
										OFFSET 6.337502 0.000000 0.000000
										CHANNELS 3 Xrotation Yrotation Zrotation
										JOINT LeftHandRing3
										{
											OFFSET 5.779297 0.000000 0.000000
											CHANNELS 3 Xrotation Yrotation Zrotation
											JOINT LeftHandRing4
											{
												OFFSET 4.965698 0.000000 0.000000
												CHANNELS 3 Xrotation Yrotation Zrotation
												End Site
												{
													OFFSET 0.000000 4.965668 0.016186
												}
											}
										}
									}
								}
								JOINT LeftHandPinky1
								{
									OFFSET 20.037003 -1.530319 -10.950146
									CHANNELS 3 Xrotation Yrotation Zrotation
									JOINT LeftHandPinky2
									{
										OFFSET 5.254700 0.000000 0.000000
										CHANNELS 3 Xrotation Yrotation Zrotation
										JOINT LeftHandPinky3
										{
											OFFSET 4.810204 0.000000 0.000000
											CHANNELS 3 Xrotation Yrotation Zrotation
											JOINT LeftHandPinky4
											{
												OFFSET 3.647202 0.000000 0.000000
												CHANNELS 3 Xrotation Yrotation Zrotation
												End Site
												{
													OFFSET 0.000000 3.647186 0.011889
												}
											}
										}
									}
								}
							}
						}
					}
				}
				JOINT RightShoulder
				{
					OFFSET -15.141001 14.495407 -7.737500
					CHANNELS 3 Xrotation Yrotation Zrotation
					JOINT RightArm
					{
						OFFSET -9.308998 -2.777710 0.208500
						CHANNELS 3 Xrotation Yrotation Zrotation
						JOINT RightForeArm
						{
							OFFSET -29.972300 0.000000 0.000000
							CHANNELS 3 Xrotation Yrotation Zrotation
							JOINT RightHand
							{
								OFFSET -26.026505 0.000000 0.000000
								CHANNELS 3 Xrotation Yrotation Zrotation
								JOINT RightHandThumb1
								{
									OFFSET -12.240601 -7.148026 9.207092
									CHANNELS 3 Xrotation Yrotation Zrotation
									JOINT RightHandThumb2
									{
										OFFSET -4.138618 -2.389435 2.389433
										CHANNELS 3 Xrotation Yrotation Zrotation
										JOINT RightHandThumb3
										{
											OFFSET -2.726974 -1.574417 1.574421
											CHANNELS 3 Xrotation Yrotation Zrotation
											JOINT RightHandThumb4
											{
												OFFSET -3.941010 -2.275345 2.275343
												CHANNELS 3 Xrotation Yrotation Zrotation
												End Site
												{
													OFFSET 0.005814 5.087799 0.009927
												}
											}
										}
									}
								}
								JOINT RightHandIndex1
								{
									OFFSET -24.424698 -1.985657 5.953444
									CHANNELS 3 Xrotation Yrotation Zrotation
									JOINT RightHandIndex2
									{
										OFFSET -6.426697 0.000000 0.000000
										CHANNELS 3 Xrotation Yrotation Zrotation
										JOINT RightHandIndex3
										{
											OFFSET -5.337898 0.000000 0.000000
											CHANNELS 3 Xrotation Yrotation Zrotation
											JOINT RightHandIndex4
											{
												OFFSET -4.409401 0.000000 0.000000
												CHANNELS 3 Xrotation Yrotation Zrotation
												End Site
												{
													OFFSET 0.000000 4.409363 0.014408
												}
											}
										}
									}
								}
								JOINT RightHandMiddle1
								{
									OFFSET -23.810097 0.000000 0.000000
									CHANNELS 3 Xrotation Yrotation Zrotation
									JOINT RightHandMiddle2
									{
										OFFSET -7.176498 0.000000 0.000000
										CHANNELS 3 Xrotation Yrotation Zrotation
										JOINT RightHandMiddle3
										{
											OFFSET -6.774902 0.000000 0.000000
											CHANNELS 3 Xrotation Yrotation Zrotation
											JOINT RightHandMiddle4
											{
												OFFSET -5.403328 0.000000 0.000000
												CHANNELS 3 Xrotation Yrotation Zrotation
												End Site
												{
													OFFSET 0.027702 5.403244 0.017457
												}
											}
										}
									}
								}
								JOINT RightHandRing1
								{
									OFFSET -22.908302 -0.839325 -6.020576
									CHANNELS 3 Xrotation Yrotation Zrotation
									JOINT RightHandRing2
									{
										OFFSET -6.337502 0.000000 0.000000
										CHANNELS 3 Xrotation Yrotation Zrotation
										JOINT RightHandRing3
										{
											OFFSET -5.779297 0.000000 0.000000
											CHANNELS 3 Xrotation Yrotation Zrotation
											JOINT RightHandRing4
											{
												OFFSET -4.965698 0.000000 0.000000
												CHANNELS 3 Xrotation Yrotation Zrotation
												End Site
												{
													OFFSET 0.000000 4.965668 0.016226
												}
											}
										}
									}
								}
								JOINT RightHandPinky1
								{
									OFFSET -20.037003 -1.530334 -10.950259
									CHANNELS 3 Xrotation Yrotation Zrotation
									JOINT RightHandPinky2
									{
										OFFSET -5.254700 0.000000 0.000000
										CHANNELS 3 Xrotation Yrotation Zrotation
										JOINT RightHandPinky3
										{
											OFFSET -4.810204 0.000000 0.000000
											CHANNELS 3 Xrotation Yrotation Zrotation
											JOINT RightHandPinky4
											{
												OFFSET -3.647202 0.000000 0.000000
												CHANNELS 3 Xrotation Yrotation Zrotation
												End Site
												{
													OFFSET 0.000000 3.647186 0.011917
												}
											}
										}
									}
								}
							}
						}
					}
				}
			}
		}
	}
	JOINT LeftUpLeg
	{
		OFFSET 15.427100 -6.655098 0.678600
		CHANNELS 3 Xrotation Yrotation Zrotation
		JOINT LeftLeg
		{
			OFFSET 4.081073 -39.591068 13.024000
			CHANNELS 3 Xrotation Yrotation Zrotation
			JOINT LeftFoot
			{
				OFFSET -4.081074 -37.707932 -15.979700
				CHANNELS 3 Xrotation Yrotation Zrotation
				JOINT LeftToeBase
				{
					OFFSET 5.346399 -15.068900 20.645000
					CHANNELS 3 Xrotation Yrotation Zrotation
					JOINT LeftToe_End
					{
						OFFSET 2.754700 0.931300 11.300900
						CHANNELS 3 Xrotation Yrotation Zrotation
						End Site
						{
							OFFSET 0.000000 11.669021 0.000000
						}
					}
				}
			}
		}
	}
	JOINT RightUpLeg
	{
		OFFSET -15.569500 -6.655098 0.678600
		CHANNELS 3 Xrotation Yrotation Zrotation
		JOINT RightLeg
		{
			OFFSET -4.081825 -39.591045 13.023800
			CHANNELS 3 Xrotation Yrotation Zrotation
			JOINT RightFoot
			{
				OFFSET 4.081824 -37.707954 -15.979600
				CHANNELS 3 Xrotation Yrotation Zrotation
				JOINT RightToeBase
				{
					OFFSET -5.346400 -15.068900 20.645000
					CHANNELS 3 Xrotation Yrotation Zrotation
					JOINT RightToe_End
					{
						OFFSET -2.754700 0.931300 11.300900
						CHANNELS 3 Xrotation Yrotation Zrotation
						End Site
						{
							OFFSET 0.000000 11.669021 0.000000
						}
					}
				}
			}
		}
	}
}
MOTION
Frames: 5
Frame Time: 0.033333
-22.723055 79.930466 1.468136 38.944222 7.049657 2.645664 3.641231 1.524796 -0.243658 5.062284 6.280980 2.537136 5.051706 6.186455 2.803254 4.193434 4.886887 3.509158 20.219602 29.752270 -9.988253 -0.000000 0.000001 -0.000000 0.996449 -3.426505 10.037193 35.039629 37.607756 -69.579759 -0.000002 -0.000012 0.000003 -28.016731 -12.956267 -27.671477 -1.540035 3.690165 6.142354 3.946763 7.971420 0.752845 -0.575603 1.586244 2.542385 0.000001 0.000001 -0.000000 0.000001 -0.000017 0.000002 0.000000 0.000008 -0.000030 0.000001 -0.000001 -0.000003 0.000000 -0.000001 0.000001 -0.000001 -0.001943 0.015984 0.000004 0.001930 -0.015986 -0.000000 -0.000003 -0.000003 0.000000 0.000001 0.000001 0.000001 -0.000017 0.000002 -0.000002 0.000014 -0.000020 -0.000001 -0.000007 -0.000001 -0.000000 0.000000 -0.000001 -0.018089 4.054240 0.511067 -0.018086 -4.054239 -0.511071 -0.000000 0.000002 -0.000001 0.000000 0.000001 0.000001 -2.257437 -9.674620 -12.040248 -81.610959 40.557820 25.482889 -0.000009 48.968881 -0.000002 4.090981 18.218633 -22.380045 -1.849249 -3.581795 -6.586143 4.645038 -8.656789 -0.231325 -1.269830 0.126057 -2.098669 -0.000006 0.000001 -0.000002 0.000001 -0.000006 -0.000016 0.000001 -0.000004 0.000030 -0.000002 0.000014 0.000022 -0.000005 0.000003 -0.000004 0.000002 -0.000007 -0.000016 0.000003 -0.000005 0.000030 -0.000003 0.000008 0.000018 0.000001 -0.000001 0.000000 0.000003 -0.000008 -0.000013 0.000001 -0.000004 0.000028 0.000002 0.000016 0.000019 0.000001 0.000000 -0.000002 0.000001 -0.000006 -0.000016 0.000004 -0.000007 0.000029 0.000003 0.000014 0.000021 -0.000000 0.000000 -0.000001 -65.993377 -7.656306 21.185509 28.836311 -7.680923 -0.950817 2.262881 3.577775 -30.884008 -2.896752 0.000002 -0.000002 0.000000 0.000000 0.000000 -58.746259 10.200496 -36.998336 38.989121 4.384231 1.323452 -12.255444 -4.155976 23.973904 -1.538790 0.000001 -0.000004 0.000000 -0.000000 0.000000 
-21.571190 76.340637 0.166370 38.138274 7.044455 3.041897 4.927026 0.833670 -0.593469 6.940364 5.829642 2.509891 6.943320 5.691318 2.798520 1.996223 4.367713 3.687223 17.444447 27.609459 -10.781374 -0.000001 -0.000000 0.000000 1.163425 -4.014517 9.645703 36.106525 31.648552 -72.290729 0.000002 0.000001 0.000002 -28.612304 -12.694796 -29.429267 -1.540035 3.690167 6.142354 3.946762 7.971420 0.752846 -0.575603 1.586243 2.542386 -0.000000 -0.000000 -0.000000 0.000002 -0.000018 0.000002 0.000001 0.000011 -0.000030 0.000002 -0.000001 -0.000003 0.000001 0.000002 0.000000 -0.000001 -0.001944 0.015984 0.000003 0.001930 -0.015987 0.000001 -0.000004 -0.000002 -0.000001 -0.000001 -0.000002 0.000002 -0.000018 0.000001 -0.000001 0.000013 -0.000020 -0.000004 -0.000005 -0.000002 -0.000001 -0.000000 -0.000001 -0.018090 4.054239 0.511067 -0.018085 -4.054239 -0.511071 -0.000000 0.000000 -0.000002 -0.000001 0.000001 0.000001 -1.937740 -9.604312 -9.245984 -84.145916 29.803428 32.415245 0.000005 49.798762 0.000003 11.211289 15.939457 -39.702626 -1.849249 -3.581792 -6.586143 4.645043 -8.656792 -0.231318 -1.269826 0.126059 -2.098672 -0.000001 0.000001 -0.000001 -0.000000 -0.000006 -0.000015 0.000001 -0.000005 0.000030 -0.000002 0.000015 0.000020 -0.000000 0.000000 -0.000003 0.000001 -0.000006 -0.000013 -0.000001 -0.000006 0.000032 -0.000000 0.000004 0.000018 0.000001 -0.000001 0.000001 -0.000000 -0.000006 -0.000011 0.000003 -0.000006 0.000027 0.000002 0.000014 0.000021 -0.000002 0.000001 0.000002 -0.000000 -0.000006 -0.000013 -0.000003 -0.000005 0.000032 -0.000000 0.000013 0.000023 -0.000001 0.000001 0.000000 -69.034703 -10.175175 20.512665 36.335698 -5.536089 -1.172389 -2.846498 4.405397 -28.430912 -1.899276 0.000001 0.000003 0.000000 -0.000000 0.000000 -60.868167 13.181033 -38.615233 44.679969 4.448457 1.633702 -14.967815 -4.858323 24.525259 -0.849468 0.000003 -0.000006 0.000000 0.000000 -0.000000 
-20.307228 72.815552 -0.964935 37.317725 6.927519 3.412781 6.215692 0.161564 -0.944351 8.838293 5.313366 2.449844 8.854700 5.130385 2.754162 -0.139944 3.832487 3.852006 14.660082 25.361070 -11.461130 -0.000000 0.000000 0.000001 1.323719 -4.591320 9.136911 36.073535 25.640540 -74.691110 -0.000004 -0.007644 0.000001 -29.207771 -12.373031 -31.190940 -1.540035 3.690164 6.142355 3.946763 7.971417 0.752847 -0.575601 1.586242 2.542385 0.000001 0.000000 -0.000001 0.000002 -0.000017 0.000002 0.000001 0.000012 -0.000028 0.000003 -0.000001 -0.000003 0.000002 -0.000001 -0.000000 -0.000000 -0.001946 0.015986 0.000002 0.001930 -0.015987 -0.000000 -0.000005 -0.000003 -0.000001 0.000001 0.000001 0.000002 -0.000017 0.000002 -0.000002 0.000015 -0.000020 -0.000000 -0.000006 -0.000002 0.000001 -0.000000 0.000001 -0.018089 4.054237 0.511068 -0.018089 -4.054236 -0.511071 0.000002 0.000001 -0.000004 0.000002 0.000000 -0.000001 -1.605877 -9.461114 -6.404505 -86.320470 19.083390 38.479647 -0.000013 50.637230 0.000008 16.747093 11.338304 -55.662418 -1.849250 -3.581794 -6.586142 4.645043 -8.656786 -0.231321 -1.269826 0.126060 -2.098677 0.000000 -0.000002 0.000001 0.000005 -0.000005 -0.000013 0.000007 -0.000007 0.000031 -0.000001 0.000010 0.000022 0.000001 0.000002 0.000000 0.000005 -0.000005 -0.000013 0.000002 -0.000007 0.000033 -0.000000 0.000007 0.000020 0.000000 0.000000 -0.000001 0.000005 -0.000006 -0.000011 0.000002 -0.000008 0.000024 -0.000002 0.000014 0.000021 0.000001 0.000001 -0.000001 0.000005 -0.000005 -0.000013 0.000005 -0.000005 0.000033 -0.000002 0.000014 0.000022 0.000003 0.000001 -0.000003 -71.974375 -13.043792 20.512364 43.103551 -4.155568 -1.492363 -5.227813 4.712327 -29.414609 -1.367648 0.000002 0.000002 0.000000 -0.000001 -0.000000 -62.900640 16.318533 -40.286795 49.884375 4.934532 2.024168 -16.131563 -5.292059 25.263427 -0.611586 0.000004 0.000002 0.000000 0.000000 0.000000 
-18.996765 69.606766 -1.892918 36.421376 6.461656 3.759633 7.502589 -0.576101 -1.357549 10.810822 4.517229 2.258273 10.838634 4.286067 2.549761 -2.013429 3.228160 3.959610 11.742613 22.673873 -11.595919 -0.000001 -0.000000 0.000001 1.475568 -5.114509 8.119986 33.790390 19.771127 -76.598447 0.000003 -0.014523 0.000001 -29.773577 -11.868669 -32.993509 -1.540030 3.690167 6.142354 3.946766 7.971418 0.752845 -0.575606 1.586243 2.542385 0.000003 0.000000 -0.000000 0.000002 -0.000017 0.000001 -0.000001 0.000009 -0.000029 -0.000001 0.000001 -0.000003 0.000000 -0.000000 -0.000002 -0.000001 -0.001945 0.015983 0.000004 0.001930 -0.015986 -0.000003 -0.000006 0.000000 -0.000001 0.000000 0.000001 0.000002 -0.000017 0.000001 0.000001 0.000014 -0.000019 -0.000004 -0.000009 -0.000001 0.000003 0.000000 -0.000001 -0.018086 4.054240 0.511068 -0.018087 -4.054240 -0.511071 -0.000000 0.000000 -0.000002 0.000001 0.000001 0.000000 -1.205785 -9.024472 -3.358504 -87.651059 9.896046 44.261050 0.000040 51.512361 -0.000047 19.378428 5.723497 -68.359750 -1.849250 -3.581788 -6.586141 4.645039 -8.656793 -0.231319 -1.269826 0.126059 -2.098675 -0.000000 -0.000005 0.000000 0.000002 -0.000006 -0.000014 0.000002 -0.000004 0.000032 -0.000001 0.000013 0.000025 0.000000 -0.000002 -0.000001 0.000002 -0.000005 -0.000013 0.000002 -0.000006 0.000032 -0.000001 0.000002 0.000020 -0.000001 0.000001 -0.000000 0.000002 -0.000006 -0.000011 0.000003 -0.000004 0.000031 -0.000002 0.000017 0.000022 0.000001 0.000001 -0.000001 0.000002 -0.000006 -0.000014 0.000002 -0.000007 0.000031 -0.000003 0.000012 0.000024 0.000000 -0.000000 0.000001 -74.245502 -15.986917 21.279212 48.907973 -3.654747 -1.894887 -5.900813 4.888046 -32.811809 -0.906585 0.000003 -0.000004 0.000000 -0.000000 0.000000 -64.549796 19.512194 -41.616045 54.226443 5.550033 2.455256 -16.203936 -5.433280 25.775472 -0.369762 -0.000001 -0.000006 -0.000000 -0.000000 0.000000 
-18.095304 67.588120 -2.534573 35.246635 4.751842 4.035557 8.770860 -1.688584 -2.022987 13.060152 2.651603 1.574343 13.089469 2.359617 1.744892 -2.883349 2.359880 3.848739 8.255000 18.322563 -9.638065 -0.000002 0.000001 -0.000001 1.612696 -5.439416 5.159379 24.903500 14.636776 -77.148469 -0.000007 -0.010880 0.000009 -30.186578 -10.737775 -34.973331 -1.540033 3.690166 6.142355 3.946763 7.971420 0.752847 -0.575604 1.586244 2.542386 -0.000002 0.000000 0.000000 0.000004 -0.000016 0.000001 -0.000002 0.000010 -0.000030 0.000000 -0.000000 -0.000002 -0.000000 -0.000001 0.000000 0.000001 -0.001944 0.015984 0.000003 0.001929 -0.015986 -0.000004 -0.000007 -0.000001 0.000003 0.000002 0.000002 0.000004 -0.000016 0.000001 0.000001 0.000014 -0.000019 0.000001 -0.000009 -0.000002 0.000002 -0.000001 -0.000000 -0.018083 4.054239 0.511068 -0.018088 -4.054236 -0.511071 0.000004 0.000003 -0.000002 -0.000001 -0.000001 -0.000001 -0.609691 -7.468333 0.458452 -85.181967 8.304478 52.002438 0.000005 52.527857 -0.000001 17.023145 2.215703 -71.552775 -1.849251 -3.581790 -6.586144 4.645038 -8.656783 -0.231321 -1.269827 0.126060 -2.098674 -0.000002 0.000000 -0.000001 0.000002 -0.000003 -0.000012 0.000003 -0.000007 0.000033 0.000000 0.000017 0.000021 0.000001 0.000001 -0.000000 0.000003 -0.000003 -0.000012 0.000005 -0.000006 0.000031 -0.000002 0.000003 0.000019 -0.000001 -0.000003 -0.000000 0.000004 -0.000003 -0.000010 0.000000 -0.000008 0.000029 -0.000000 0.000016 0.000023 0.000000 0.000001 -0.000000 0.000002 -0.000003 -0.000012 0.000003 -0.000004 0.000031 0.000000 0.000017 0.000023 -0.000002 0.000001 0.000001 -74.534945 -17.817617 23.024873 53.045858 -3.568403 -2.237078 -6.701482 5.135510 -35.190245 -1.049510 -0.000002 0.000001 0.000000 0.000000 -0.000000 -64.965563 22.454901 -41.136990 56.323519 5.612781 2.699802 -15.926452 -5.373156 26.165053 -0.113068 -0.000008 0.000002 -0.000000 0.000000 0.000001 
